<?xml version="1.0" encoding="utf-8"?>
<!-- Generator: Adobe Illustrator 16.0.0, SVG Export Plug-In . SVG Version: 6.00 Build 0)  -->
<!DOCTYPE svg PUBLIC "-//W3C//DTD SVG 1.1//EN" "http://www.w3.org/Graphics/SVG/1.1/DTD/svg11.dtd">
<svg version="1.1" id="Layer_1" xmlns="http://www.w3.org/2000/svg" xmlns:xlink="http://www.w3.org/1999/xlink" x="0px" y="0px"
	 width="256px" height="256px" viewBox="0 0 256 256" enable-background="new 0 0 256 256" xml:space="preserve">
<rect fill="#A05C94" width="256" height="256"/>
<path opacity="0.7" fill-rule="evenodd" clip-rule="evenodd" fill="#73467A" d="M62.752,159L0.017,222.485L0,256h163.669
	c0,0,20.083-19.125,30.958-28.875C173.96,228.125,66.669,233,63.669,221C58.039,198.479,62.752,159,62.752,159z"/>
<g>
	<g>
		<path fill="#9B5C8F" d="M126.422,227.714H76.387c-8.428,0-15.285-6.857-15.285-15.286v-40.952
			c-0.033-4.038,1.533-7.873,4.411-10.772c2.887-2.91,6.729-4.513,10.819-4.513h107.285c8.429,0,15.286,6.856,15.286,15.285v40.952
			c0,8.429-6.857,15.286-15.286,15.286H149.61l6.826,16.711L126.422,227.714z"/>
		<path fill="#FFFFFF" d="M183.617,159.19c6.79,0,12.286,5.495,12.286,12.285v40.952c0,6.79-5.496,12.286-12.286,12.286h-38.473
			l5.282,12.932L127.2,224.714H76.387c-6.79,0-12.285-5.496-12.285-12.286v-40.952c-0.055-6.735,5.441-12.285,12.23-12.285H183.617
			 M183.617,153.19H76.332c-4.896,0-9.495,1.918-12.949,5.399c-3.445,3.473-5.32,8.065-5.281,12.934v40.904
			c0,10.083,8.203,18.286,18.285,18.286h49.256l21.865,12.174l14.938,8.317l-6.465-15.828l-1.905-4.663h29.541
			c10.083,0,18.286-8.203,18.286-18.286v-40.952C201.903,161.394,193.7,153.19,183.617,153.19L183.617,153.19z"/>
	</g>
	<path fill="#FFFFFF" d="M70.676,170.343c0.754-1.023,1.885-1.562,3.395-1.67c2.748-0.215,4.309,1.077,4.688,3.881
		c1.668,11.262,3.502,20.799,5.442,28.611L96,178.695c1.079-2.048,2.427-3.125,4.043-3.232c2.371-0.162,3.824,1.347,4.418,4.527
		c1.346,7.165,3.072,13.255,5.12,18.428c1.399-13.686,3.771-23.55,7.11-29.637c0.811-1.51,1.996-2.265,3.558-2.37
		c1.239-0.109,2.372,0.268,3.395,1.075c1.024,0.811,1.563,1.833,1.671,3.075c0.053,0.967-0.108,1.775-0.54,2.586
		c-2.101,3.877-3.823,10.398-5.226,19.45c-1.348,8.782-1.834,15.628-1.51,20.53c0.107,1.348-0.106,2.533-0.646,3.557
		c-0.646,1.186-1.613,1.833-2.855,1.939c-1.4,0.108-2.855-0.54-4.256-1.995c-5.012-5.118-9-12.771-11.91-22.954
		c-3.502,6.899-6.087,12.069-7.758,15.518c-3.181,6.092-5.875,9.218-8.139,9.378c-1.455,0.108-2.692-1.131-3.771-3.716
		c-2.747-7.06-5.711-20.693-8.889-40.901C69.652,172.554,69.92,171.313,70.676,170.343z"/>
	<path fill="#FFFFFF" d="M186.526,178.804c-1.938-3.395-4.795-5.441-8.621-6.25c-1.024-0.217-1.992-0.325-2.909-0.325
		c-5.174,0-9.375,2.695-12.662,8.082c-2.804,4.583-4.203,9.647-4.203,15.198c0,4.148,0.861,7.704,2.584,10.668
		c1.941,3.396,4.8,5.443,8.623,6.251c1.024,0.215,1.994,0.324,2.911,0.324c5.226,0,9.429-2.695,12.662-8.083
		c2.801-4.632,4.204-9.699,4.204-15.251C189.115,185.216,188.254,181.713,186.526,178.804L186.526,178.804z M179.739,193.73
		c-0.755,3.557-2.103,6.196-4.097,7.974c-1.562,1.401-3.018,1.995-4.365,1.726c-1.293-0.271-2.372-1.4-3.179-3.503
		c-0.646-1.671-0.968-3.341-0.968-4.904c0-1.348,0.106-2.693,0.376-3.933c0.483-2.209,1.398-4.365,2.855-6.415
		c1.778-2.639,3.665-3.715,5.604-3.338c1.294,0.268,2.371,1.401,3.18,3.502c0.646,1.67,0.971,3.342,0.971,4.903
		C180.117,191.143,179.955,192.489,179.739,193.73L179.739,193.73z"/>
	<path fill="#FFFFFF" d="M152.743,178.804c-1.941-3.395-4.85-5.441-8.623-6.25c-1.022-0.217-1.994-0.325-2.911-0.325
		c-5.172,0-9.375,2.695-12.661,8.082c-2.802,4.583-4.203,9.647-4.203,15.198c0,4.148,0.861,7.704,2.589,10.668
		c1.936,3.396,4.794,5.443,8.619,6.251c1.024,0.215,1.992,0.324,2.91,0.324c5.225,0,9.431-2.695,12.661-8.083
		c2.803-4.632,4.204-9.699,4.204-15.251C155.328,185.216,154.467,181.713,152.743,178.804L152.743,178.804z M145.953,193.73
		c-0.755,3.557-2.103,6.196-4.095,7.974c-1.562,1.401-3.02,1.995-4.367,1.726c-1.294-0.271-2.37-1.4-3.18-3.503
		c-0.646-1.671-0.97-3.341-0.97-4.904c0-1.348,0.11-2.693,0.378-3.933c0.485-2.209,1.401-4.365,2.857-6.415
		c1.777-2.639,3.663-3.715,5.604-3.338c1.292,0.268,2.372,1.401,3.178,3.502c0.646,1.67,0.969,3.342,0.969,4.903
		C146.328,191.143,146.221,192.489,145.953,193.73L145.953,193.73z"/>
</g>
<g>
	<path fill="#73467A" d="M243.529,76.35c-2.143-3.429-4.756-8.152-10.869-9.285c-0.227-2.491-1.381-4.202-2.717-6.793
		c-3.625-7.021-9.059-7.926-17.438-9.511c-2.039-4.077,0-5.888-5.662-9.059s-14.041-3.624-14.041-3.624s2.266-3.85-0.904-7.02
		c-3.172-3.17-9.285-3.623-9.285-3.623s-0.453-12.002-2.039-21.287c-0.355-2.082-0.997-4.297-1.866-6.648H85.049
		c-0.814,6.237-1.484,12.854-1.625,16.385c-0.227,5.662-4.076,6.794-8.152,8.605c-4.076,1.812-1.359,2.038-2.038,3.85
		c-0.68,1.812-5.888,0-8.379,2.944c-2.491,2.944,0.226,3.623-2.718,5.888s-6.793,1.812-13.134,5.435
		c-6.341,3.624-2.038,7.021-5.208,8.832s-9.285,0.453-14.041,4.755c-4.756,4.303-4.756,9.964-4.756,9.964s-0.679,1.359-5.435,3.85
		C14.807,72.5,9.599,76.803,7.561,84.276S1.22,96.504,2.125,113.715c0.906,17.21,4.755,18.343,12.908,36.913
		c8.152,18.569,17.89,26.949,23.778,26.949c5.888,0,11.776-17.211,12.456-24.458c4.982,0,5.661-4.076,6.341-6.567
		c0.679-2.491,0.906-12.002,0.679-14.267s-0.227-1.359,2.944,1.585s3.397-6.567,4.529-6.341s1.812-0.227,1.812-0.227
		s-0.679,7.247,0.906,13.135c1.585,5.888,3.17,12.908,3.17,12.908s90.131,0,113.456,0c-0.906-3.397,3.17-26.043,3.17-26.043
		s2.266-3.85,2.719,2.265c0.453,6.115,7.699,2.491,7.699,2.491s-1.813,7.021-0.227,14.493c1.586,7.474,6.115,6.794,6.115,6.794
		s0.904,0.906,3.17,11.097c2.264,10.19,6.793,12.908,10.189,12.908c3.398,0,13.135-7.474,17.211-15.626s4.303-11.097,9.512-18.796
		s8.605-20.155,8.605-29.666s-1.359-14.72-2.943-22.646C248.738,82.69,243.529,76.35,243.529,76.35z"/>
	<path opacity="0.9" fill="#5A326B" d="M95.875,0c-0.309,0.684-0.613,1.372-0.902,2.071c-5.435,13.135,2.265,24.458,6.341,27.628
		c4.077,3.17,9.059,9.511,13.135,16.758c4.076,7.247,9.964,11.323,18.569,10.417c5.926-0.624,8.605-0.453,14.947-8.153
		c5.355-6.503,7.246-13.587,16.758-24.91c8.089-9.629,5.695-16.638,2.013-23.812H95.875z"/>
	<path fill="#FFFFFF" d="M37,77.935c0,0,1.812,1.132,5.888-2.265c4.077-3.397,13.814-13.361,18.57-18.343
		c4.755-4.982,10.19-7.247,16.984-9.737c6.794-2.491,10.417-4.529,13.135-4.529c0,0,1.331,1.787,0.048,4.127
		c-1.283,2.341-6.087,3.572-9.107,5.233s-6.038,2.793-8.228,5.133c4.076-0.982,8.756-0.982,11.398-0.755
		c2.643,0.227,4.907,0.302,7.096,0.453c0.377,2.567-0.151,4.228-2.566,5.511s-10.04-0.982-12.078,0.302s-6.04,3.095-7.021,4.303
		s0.227,1.963,1.736,1.585c1.51-0.377,7.624-0.754,8.983-0.075c1.358,0.68,3.85,2.189,7.02,4.152s3.397,4.604,0.906,5.736
		c-2.491,1.132-5.436-1.358-8.228-2.792s-4.303-1.736-8.001-0.528c-3.699,1.208-8.455,2.491-6.718,3.472s6.869,1.661,9.36,3.85
		c2.491,2.189,6.87,5.059,5.586,7.625c-1.284,2.566-4.454,0.905-6.643-0.151c-2.189-1.056-5.435-4.302-8.077-3.773
		c-2.643,0.528-3.171,0.604-5.134,3.397c-1.962,2.792-7.774,10.643-13.285,10.869c-5.511,0.226-5.586-1.284-8.756-0.227
		s-6.19,1.585-6.19,1.585S31.942,79.144,37,77.935z"/>
	<path fill="#FFFFFF" d="M219.752,79.067c-2.803-0.411-7.359-1.699-16.078-12.342c-8.719-10.644-11.098-13.361-22.873-18.117
		c-11.775-4.756-15.738-6.001-16.758-6.341c-1.02-0.34-2.49,3.396,1.359,5.774s8.266,4.416,11.096,5.548s4.982,2.717,6.229,3.736
		c1.244,1.019-1.586,0.227-3.736-0.339c-2.152-0.566-3.738-0.113-8.719,0.113c-4.982,0.226-6.908-0.566-6.908,0.679
		s0.566,3.85,4.303,4.755c3.736,0.906,8.039-0.226,9.172,0.227c1.133,0.453,4.643,3.624,6.002,4.076
		c1.357,0.453,4.076,1.812,2.377,2.151c-1.699,0.34-7.02-0.453-9.852-0.339c-2.83,0.113-3.17,1.358-6.793,3.51
		s-3.623,2.491-3.623,4.077c0,1.585,2.49,3.057,4.643,2.151c2.15-0.906,6-3.624,7.699-3.963c1.699-0.339,2.49,0,5.662,1.246
		c3.17,1.246,5.773,1.246,6.453,1.698c0.68,0.453-0.113,1.585-2.83,2.265c-2.719,0.68-3.85,0.68-6.455,3.057
		c-2.604,2.378-4.416,3.85-5.434,4.869c-1.02,1.019-1.359,2.944,0.904,4.189c2.266,1.246,4.643-1.246,6.795-2.604
		c2.15-1.358,3.623-2.491,6.906-2.377s3.51,0.679,3.51,0.679s4.529,6.794,7.926,9.851c3.398,3.057,8.832,3.963,13.248,3.51
		c3.172-0.339,7.926,2.944,7.926,2.944S225.188,82.238,219.752,79.067z"/>
	<path fill="#5A326B" d="M33.679,102.09c0,0,0.755,12.154,3.17,21.515c2.416,9.361,5.585,20.684,7.548,25.666
		s5.133,6.342,6.492-3.473c1.359-9.813-2.265-45.066-2.265-45.066s-3.02,0.019-4.944-0.377c-1.925-0.396-2.265-0.34-4.076,0.227
		C37.792,101.147,33.679,102.09,33.679,102.09z"/>
	<path fill="#5A326B" d="M207.014,100.468c0,0-1.416,13.248-1.756,27.515c-0.34,14.267-0.001,29.817,4.075,28.685
		c4.076-1.132,7.476-22.684,9.173-30.949c1.699-8.266,3.396-21.966,3.396-21.966s-5.402-3.372-7.586-2.944
		C211.713,101.317,209.844,101.034,207.014,100.468z"/>
	<circle fill="#FFFFFF" cx="132.051" cy="99.799" r="39.177"/>
	<linearGradient id="SVGID_1_" gradientUnits="userSpaceOnUse" x1="99.75" y1="143.0215" x2="163.75" y2="143.0215">
		<stop  offset="0" style="stop-color:#9F417A"/>
		<stop  offset="0.5" style="stop-color:#A05C94"/>
		<stop  offset="1" style="stop-color:#9F417A"/>
	</linearGradient>
	<path fill="url(#SVGID_1_)" d="M99.75,153.25c0,0,8.583,5.917,32.917,5.917c25.5,0,31.083-5.792,31.083-5.792l-4.313-25.5
		c0,0-8.288,4.23-28.52,4.23c-19.475,0-27.23-5.23-27.23-5.23L99.75,153.25z"/>
</g>
</svg>
